<svg xmlns="http://www.w3.org/2000/svg" width="18" height="18" data-svgs-path="sm1/scheduler.svg"><path fill="currentColor" fill-rule="evenodd" d="M15 6v7.077c0 .669-.07.911-.2 1.156a1.371 1.371 0 0 1-.567.567c-.245.13-.487.2-1.156.2H4.923c-.669 0-.911-.07-1.156-.2a1.363 1.363 0 0 1-.567-.567c-.13-.245-.2-.487-.2-1.156V4.5A1.5 1.5 0 0 1 4.5 3H5V1.5h1V3h6V1.5h1V3h.5A1.5 1.5 0 0 1 15 4.5V6zM5.117 6c-.473 0-.617.028-.764.108a.59.59 0 0 0-.247.252c-.078.15-.106.296-.106.777v5.726c0 .481.028.628.106.777a.59.59 0 0 0 .247.252c.147.08.291.108.764.108h7.766c.473 0 .617-.028.764-.108a.59.59 0 0 0 .247-.252c.078-.15.106-.296.106-.777V7.137c0-.481-.028-.628-.106-.777a.59.59 0 0 0-.247-.252C13.5 6.028 13.356 6 12.883 6H5.117z"></path></svg>
