<svg xmlns="http://www.w3.org/2000/svg" xmlns:xlink="http://www.w3.org/1999/xlink" viewBox="0 0 24 24" data-svgs-path="sm1/gear.svg" class="light_icon"><defs><path id="sm1/gear/a" d="M5.7 2.8A7 7 0 0 1 7 2.3v-1l.1-.8a1 1 0 0 1 .4-.4l.8-.1h1.4l.8.1.4.4.1.8v1l1.3.5.7-.7.7-.4a1 1 0 0 1 .5 0l.7.4 1 1 .4.7a1 1 0 0 1 0 .5L16 5l-.7.7.5 1.3h1l.8.1.4.4.1.8v1.4l-.1.8a1 1 0 0 1-.4.4l-.8.1h-1a7 7 0 0 1-.5 1.3l.7.7.4.7a1 1 0 0 1 0 .5l-.4.7-1 1-.7.4a1 1 0 0 1-.5 0L13 16l-.7-.7a7 7 0 0 1-1.3.5v1l-.1.8a1 1 0 0 1-.4.4l-.8.1H8.3l-.8-.1a1 1 0 0 1-.4-.4l-.1-.8v-1a7 7 0 0 1-1.3-.5l-.7.7-.7.4a1 1 0 0 1-.5 0L3 16l-1-1-.4-.7a1 1 0 0 1 0-.5L2 13l.7-.7a7 7 0 0 1-.5-1.3h-1l-.8-.1a1 1 0 0 1-.4-.4L0 9.7V8.3l.1-.8a1 1 0 0 1 .4-.4l.8-.1h1l.5-1.3-.7-.7-.4-.7a1 1 0 0 1 0-.5L2 3l1-1 .7-.4a1 1 0 0 1 .5 0L5 2l.7.7zM9 12a3 3 0 1 0 0-6 3 3 0 0 0 0 6z"></path></defs><g fill="none" fill-rule="evenodd" transform="translate(3 3)"><mask id="sm1/gear/b" fill="currentColor"><use xlink:href="#sm1/gear/a"></use></mask><use fill="currentColor" xlink:href="#sm1/gear/a"></use></g></svg>
